<svg xmlns="http://www.w3.org/2000/svg" viewBox="0 0 150 150" width="150" height="150">
	<defs>
		<clipPath clipPathUnits="userSpaceOnUse" id="cp1">
			<path d="M0 0L150 0L150 150L0 150Z" />
		</clipPath>
	</defs>
	<style>
		tspan { white-space:pre }
		.shp0 { fill: #ff5d4c } 
		.shp1 { fill: #ffffff } 
	</style>
	<g id="Page 1" clip-path="url(#cp1)">
		<path id="Path 1" class="shp0" d="M149.85 75.07C149.85 116.45 116.31 150 74.93 150C33.55 150 0 116.45 0 75.07C0 33.69 33.55 0.15 74.93 0.15C116.31 0.15 149.85 33.69 149.85 75.07Z" />
		<path id="Path 2" class="shp1" d="M56.76 51.13L51.95 22.18C51.95 22.18 60.28 21.56 60.93 25.87C61.59 30.19 64.39 45.97 64.39 45.97C64.39 45.97 61.56 52.3 56.76 51.13ZM94.79 123.03C91.79 124.11 71.84 122.93 46.06 91.68C41.66 86.24 27.61 60.17 30.1 37.7C30.61 35.51 32.64 28.05 48.66 22.68C51.62 39.48 54.27 52.77 54.27 52.77C54.27 52.77 46.9 58.31 51.7 66.41C58.56 76.95 65.34 85.6 65.34 85.6L74.24 97.1C74.24 97.1 78.29 103.01 87.4 97.84L113.48 113.05C113.48 113.05 104.43 121.36 94.79 123.03ZM89.29 95.03C94.56 88.13 98.73 90.65 98.73 90.65C98.73 90.65 106.6 95.36 115.79 100.49C119.08 102.72 115.99 110.14 115.99 110.14L89.29 95.03Z" />
	</g>
</svg>